# Blender 4.3.2
# www.blender.org
mtllib spaceship.mtl
o Cube
v 0.650832 0.271315 -1.000000
v 1.240349 -0.000333 1.000000
v 0.650832 0.315481 -1.000000
v 1.240348 0.180615 0.560630
v 0.805783 -0.000334 4.284117
v 0.805782 0.180615 4.284118
v 3.119281 -0.942804 2.322021
v 3.119280 -0.761855 1.882651
v 0.650832 0.315481 -1.000000
v 1.240348 0.180615 0.560630
v 3.119280 -0.761855 1.882651
v 0.507604 0.512063 -1.000000
v 0.556329 0.986010 1.000001
v 0.218978 0.452316 3.753458
v 1.240349 -0.000333 -0.372761
v 1.240349 0.180615 -0.372760
v 3.119281 -0.942804 0.949260
v 3.119281 -0.761855 0.949260
v 1.240349 0.180615 -0.372760
v 3.119281 -0.761855 0.949260
v 0.653542 0.986010 -0.372760
v 3.457423 -0.942803 2.322021
v 3.457423 -0.761854 1.882651
v 3.457423 -0.942803 0.949260
v 3.457423 -0.761854 0.949261
v 3.119281 -0.942804 2.322021
v 3.119280 -0.761855 2.321895
v 3.457423 -0.942803 2.322021
v 3.457423 -0.761854 2.321895
v 3.182715 -0.908858 2.321997
v 3.182715 -0.795800 2.321919
v 3.393988 -0.908857 2.321997
v 3.393988 -0.795800 2.321919
v 3.182715 -0.907922 3.673004
v 3.182715 -0.794865 3.672926
v 3.393988 -0.907922 3.673004
v 3.393988 -0.794865 3.672926
v 3.242466 -0.875948 3.672982
v 3.242466 -0.826839 3.672948
v 3.334237 -0.875948 3.672982
v 3.334237 -0.826839 3.672948
v 3.242466 -0.875760 3.945883
v 3.242466 -0.826651 3.945849
v 3.334237 -0.875760 3.945883
v 3.334237 -0.826651 3.945849
v 0.960107 0.565249 0.770461
v 0.525541 0.310371 4.030690
v 0.582431 0.409363 -1.000000
v 0.960107 0.565249 -0.372760
v 0.845504 0.498033 1.630241
v 0.538940 0.845265 1.726136
v 1.125746 0.180615 1.542580
v 1.125746 -0.000333 1.866080
v -0.650832 0.271315 -1.000000
v -1.240349 -0.000333 1.000000
v 0.000000 -0.000333 1.000000
v 0.000000 0.271315 -1.000000
v -0.650832 0.315481 -1.000000
v -1.240348 0.180615 0.560630
v 0.000000 0.315481 -1.000000
v -0.805783 -0.000334 4.284117
v 0.000000 -0.000334 5.383713
v -0.805782 0.180615 4.284118
v 0.000000 0.180615 5.383713
v -3.119281 -0.942804 2.322021
v -3.119280 -0.761855 1.882651
v -0.650832 0.315481 -1.000000
v -1.240348 0.180615 0.560630
v -3.119280 -0.761855 1.882651
v -0.507604 0.512063 -1.000000
v -0.556329 0.986010 1.000001
v 0.000000 0.986010 1.000000
v 0.000000 0.512063 -1.000000
v -0.218978 0.452316 3.753458
v 0.000000 0.452316 4.853053
v -1.240349 -0.000333 -0.372761
v 0.000000 -0.000333 -0.372761
v -1.240349 0.180615 -0.372760
v -3.119281 -0.942804 0.949260
v -3.119281 -0.761855 0.949260
v -1.240349 0.180615 -0.372760
v -3.119281 -0.761855 0.949260
v -0.653542 0.986010 -0.372760
v 0.000000 0.986010 -0.372761
v -3.457423 -0.942803 2.322021
v -3.457423 -0.761854 1.882651
v -3.457423 -0.942803 0.949260
v -3.457423 -0.761854 0.949261
v -3.119281 -0.942804 2.322021
v -3.119280 -0.761855 2.321895
v -3.457423 -0.942803 2.322021
v -3.457423 -0.761854 2.321895
v -3.182715 -0.908858 2.321997
v -3.182715 -0.795800 2.321919
v -3.393988 -0.908857 2.321997
v -3.393988 -0.795800 2.321919
v -3.182715 -0.907922 3.673004
v -3.182715 -0.794865 3.672926
v -3.393988 -0.907922 3.673004
v -3.393988 -0.794865 3.672926
v -3.242466 -0.875948 3.672982
v -3.242466 -0.826839 3.672948
v -3.334237 -0.875948 3.672982
v -3.334237 -0.826839 3.672948
v -3.242466 -0.875760 3.945883
v -3.242466 -0.826651 3.945849
v -3.334237 -0.875760 3.945883
v -3.334237 -0.826651 3.945849
v 0.000000 0.409363 -1.000000
v -0.960107 0.565249 0.770461
v -0.525541 0.310371 4.030690
v -0.582431 0.409363 -1.000000
v 0.000000 0.310371 5.130285
v -0.960107 0.565249 -0.372760
v -0.845504 0.498033 1.630241
v -0.538940 0.845265 1.726136
v 0.000000 0.948491 1.700656
v 0.000000 -0.000333 2.156063
v -1.125746 0.180615 1.542580
v -1.125746 -0.000333 1.866080
vn -0.0000 -1.0000 -0.0000
vn 0.6829 0.4976 -0.5349
vn 0.5754 -0.0000 -0.8178
vn -0.0000 -0.0000 -1.0000
vn 0.8066 -0.0000 0.5911
vn 0.9914 -0.0000 0.1312
vn 0.1922 0.9074 0.3737
vn 0.4484 0.8939 -0.0000
vn 0.7287 -0.0000 -0.6849
vn -0.0000 -0.0000 1.0000
vn -0.0000 1.0000 -0.0000
vn 0.7611 0.6331 0.1409
vn -0.0000 -0.9176 -0.3974
vn 0.7346 0.6765 0.0520
vn -0.4484 -0.8939 -0.0000
vn -0.0000 0.7978 -0.6029
vn 1.0000 -0.0000 -0.0000
vn -0.0000 0.0007 1.0000
vn -1.0000 -0.0000 -0.0000
vn -0.0000 1.0000 -0.0007
vn -0.0000 -1.0000 0.0007
vn 0.5281 0.7559 0.3870
vn 0.7614 0.6306 0.1508
vn 0.8082 0.5889 -0.0000
vn 0.9652 0.2283 0.1277
vn 0.3859 0.9214 0.0450
vn 0.1759 0.9656 0.1914
vn -0.6829 0.4976 -0.5349
vn -0.5754 -0.0000 -0.8178
vn -0.8066 -0.0000 0.5911
vn -0.9726 0.2029 0.1135
vn -0.1922 0.9074 0.3737
vn -0.4484 0.8939 -0.0000
vn -0.7287 -0.0000 -0.6849
vn -0.7530 0.6406 0.1505
vn -0.8082 0.5889 -0.0000
vn 0.4484 -0.8939 -0.0000
vn -0.5281 0.7559 0.3870
vn -0.8288 0.5511 0.0967
vn -0.9561 0.2710 0.1116
vn -0.3859 0.9214 0.0450
vn -0.0000 0.9986 0.0535
vn 0.1740 0.9613 0.2138
vn 0.6901 0.6442 0.3298
vn 0.3282 0.9373 0.1170
vn -0.1740 0.9613 0.2138
vn -0.6901 0.6442 0.3298
vn -0.3282 0.9373 0.1170
vn 0.9726 0.2029 0.1135
vn 0.7530 0.6406 0.1505
vn 0.3043 0.9414 0.1455
vn 0.8288 0.5511 0.0967
vn 0.9561 0.2710 0.1116
vn -0.9914 -0.0000 0.1312
vn -0.7611 0.6331 0.1409
vn -0.7346 0.6765 0.0520
vn -0.3043 0.9414 0.1455
vn -0.7614 0.6306 0.1508
vn -0.9652 0.2283 0.1277
vn -0.1759 0.9656 0.1914
vn 0.6154 0.7786 0.1226
vn 0.3643 0.9285 0.0725
vn 0.7598 0.6053 0.2372
vn -0.6154 0.7786 0.1226
vn -0.3643 0.9285 0.0725
vn -0.7598 0.6053 0.2372
s 0
usemtl Base
f 2//1 77//1 15//1
f 49//2 12//2 21//2
f 15//3 20//3 17//3
f 109//4 12//4 48//4
f 6//5 62//5 5//5
f 1//4 60//4 3//4
f 118//1 5//1 62//1
f 53//6 6//6 5//6
f 18//4 24//4 17//4
f 2//7 8//7 4//7
f 10//8 20//8 19//8
f 1//9 16//9 15//9
f 16//10 10//10 19//10
f 4//10 11//10 10//10
f 84//11 13//11 21//11
f 50//12 13//12 51//12
f 1//13 77//13 57//13
f 46//14 21//14 13//14
f 2//15 17//15 7//15
f 8//10 20//10 11//10
f 3//10 19//10 9//10
f 12//16 84//16 21//16
f 24//17 23//17 22//17
f 17//1 22//1 7//1
f 8//11 29//11 23//11
f 8//11 25//11 18//11
f 29//18 31//18 33//18
f 8//19 26//19 27//19
f 22//10 29//10 28//10
f 7//10 28//10 26//10
f 31//20 37//20 33//20
f 27//18 30//18 31//18
f 28//18 33//18 32//18
f 26//18 32//18 30//18
f 37//18 39//18 41//18
f 32//21 34//21 30//21
f 31//19 34//19 35//19
f 33//17 36//17 32//17
f 39//20 45//20 41//20
f 34//18 39//18 35//18
f 36//18 41//18 40//18
f 36//18 38//18 34//18
f 42//18 45//18 43//18
f 40//17 45//17 44//17
f 40//21 42//21 38//21
f 38//19 43//19 39//19
f 3//2 49//2 16//2
f 60//4 48//4 3//4
f 6//22 113//22 64//22
f 52//23 46//23 50//23
f 4//24 49//24 46//24
f 2//25 52//25 53//25
f 52//26 47//26 6//26
f 56//1 53//1 118//1
f 13//27 117//27 51//27
f 77//1 55//1 76//1
f 114//28 70//28 112//28
f 82//29 76//29 79//29
f 70//4 109//4 112//4
f 62//30 63//30 61//30
f 60//4 54//4 58//4
f 118//1 61//1 120//1
f 120//31 63//31 119//31
f 87//4 80//4 79//4
f 66//32 55//32 59//32
f 82//33 68//33 81//33
f 54//34 78//34 58//34
f 78//10 68//10 59//10
f 59//10 69//10 66//10
f 71//11 84//11 83//11
f 115//35 71//35 110//35
f 54//13 77//13 76//13
f 110//36 83//36 114//36
f 55//37 79//37 76//37
f 66//10 82//10 80//10
f 58//10 81//10 78//10
f 70//16 84//16 73//16
f 87//19 86//19 88//19
f 85//1 79//1 65//1
f 92//11 66//11 86//11
f 88//11 66//11 80//11
f 92//18 94//18 90//18
f 66//10 89//10 65//10
f 85//19 92//19 86//19
f 65//10 91//10 85//10
f 100//20 94//20 96//20
f 90//18 93//18 89//18
f 91//18 96//18 92//18
f 89//18 95//18 91//18
f 100//18 102//18 98//18
f 97//21 95//21 93//21
f 94//17 97//17 93//17
f 99//19 96//19 95//19
f 108//20 102//20 104//20
f 102//18 97//18 98//18
f 99//18 104//18 100//18
f 101//18 99//18 97//18
f 108//18 105//18 106//18
f 103//19 108//19 104//19
f 105//21 103//21 101//21
f 106//17 101//17 102//17
f 114//28 58//28 78//28
f 112//4 60//4 58//4
f 113//38 63//38 64//38
f 119//39 110//39 59//39
f 59//36 114//36 78//36
f 55//40 119//40 59//40
f 111//41 119//41 63//41
f 56//1 120//1 55//1
f 71//42 117//42 72//42
f 2//1 56//1 77//1
f 49//2 48//2 12//2
f 15//3 19//3 20//3
f 109//4 73//4 12//4
f 6//5 64//5 62//5
f 1//4 57//4 60//4
f 118//1 53//1 5//1
f 53//49 52//49 6//49
f 18//4 25//4 24//4
f 2//7 7//7 8//7
f 10//8 11//8 20//8
f 1//9 3//9 16//9
f 16//10 4//10 10//10
f 4//10 8//10 11//10
f 84//11 72//11 13//11
f 50//50 46//50 13//50
f 1//13 15//13 77//13
f 46//24 49//24 21//24
f 2//15 15//15 17//15
f 8//10 18//10 20//10
f 3//10 16//10 19//10
f 12//16 73//16 84//16
f 24//17 25//17 23//17
f 17//1 24//1 22//1
f 8//11 27//11 29//11
f 8//11 23//11 25//11
f 29//18 27//18 31//18
f 8//10 7//10 26//10
f 22//17 23//17 29//17
f 7//10 22//10 28//10
f 31//20 35//20 37//20
f 27//18 26//18 30//18
f 28//18 29//18 33//18
f 26//18 28//18 32//18
f 37//18 35//18 39//18
f 32//21 36//21 34//21
f 31//19 30//19 34//19
f 33//17 37//17 36//17
f 39//20 43//20 45//20
f 34//18 38//18 39//18
f 36//18 37//18 41//18
f 36//18 40//18 38//18
f 42//18 44//18 45//18
f 40//17 41//17 45//17
f 40//21 44//21 42//21
f 38//19 42//19 43//19
f 3//2 48//2 49//2
f 60//4 109//4 48//4
f 6//51 47//51 113//51
f 52//52 4//52 46//52
f 4//24 16//24 49//24
f 2//53 4//53 52//53
f 52//23 50//23 47//23
f 56//1 2//1 53//1
f 13//42 72//42 117//42
f 77//1 56//1 55//1
f 114//28 83//28 70//28
f 82//29 81//29 76//29
f 70//4 73//4 109//4
f 62//30 64//30 63//30
f 60//4 57//4 54//4
f 118//1 62//1 61//1
f 120//54 61//54 63//54
f 87//4 88//4 80//4
f 66//32 65//32 55//32
f 82//33 69//33 68//33
f 54//34 76//34 78//34
f 78//10 81//10 68//10
f 59//10 68//10 69//10
f 71//11 72//11 84//11
f 115//55 116//55 71//55
f 54//13 57//13 77//13
f 110//56 71//56 83//56
f 55//37 65//37 79//37
f 66//10 69//10 82//10
f 58//10 67//10 81//10
f 70//16 83//16 84//16
f 87//19 85//19 86//19
f 85//1 87//1 79//1
f 92//11 90//11 66//11
f 88//11 86//11 66//11
f 92//18 96//18 94//18
f 66//17 90//17 89//17
f 85//10 91//10 92//10
f 65//10 89//10 91//10
f 100//20 98//20 94//20
f 90//18 94//18 93//18
f 91//18 95//18 96//18
f 89//18 93//18 95//18
f 100//18 104//18 102//18
f 97//21 99//21 95//21
f 94//17 98//17 97//17
f 99//19 100//19 96//19
f 108//20 106//20 102//20
f 102//18 101//18 97//18
f 99//18 103//18 104//18
f 101//18 103//18 99//18
f 108//18 107//18 105//18
f 103//19 107//19 108//19
f 105//21 107//21 103//21
f 106//17 105//17 101//17
f 114//28 112//28 58//28
f 112//4 109//4 60//4
f 113//57 111//57 63//57
f 119//58 115//58 110//58
f 59//36 110//36 114//36
f 55//59 120//59 119//59
f 111//58 115//58 119//58
f 56//1 118//1 120//1
f 71//60 116//60 117//60
usemtl Black
f 117//43 14//43 51//43
f 47//44 75//44 113//44
f 50//45 14//45 47//45
f 74//46 117//46 116//46
f 75//47 111//47 113//47
f 74//48 115//48 111//48
f 117//61 75//61 14//61
f 47//62 14//62 75//62
f 50//63 51//63 14//63
f 74//64 75//64 117//64
f 75//65 74//65 111//65
f 74//66 116//66 115//66
